# xmcd
#
# Track frame offsets: 
#        225
#        16921
#        34107
#        49703
#        68056
#        78335
#        98299
#        119099
#        133533
#        157600
#        167362
#        181753
#        199742
#        213038
#
# Disc length: 3030 seconds
#
# Revision: 0
# Processed by: cddbd v1.5.2PL0 Copyright (c) Steve Scherf et al.
# Submitted via: ExactAudioCopy v0.99pb4
#
DISCID=a00bd30e
DTITLE=Brian Demarco - Bend Don't Break
DYEAR=2005
DGENRE=Folk/Rock
TTITLE0=Let's Go Walkin'
TTITLE1=Pass the Mezzrole
TTITLE2=High Flyin'
TTITLE3=Sleep
TTITLE4=Irish Stout
TTITLE5=No More Worries
TTITLE6=Uncle Ray
TTITLE7=Big Heart Small Worries
TTITLE8=Loves Broken Bow
TTITLE9=Cotton Pickin' Chicken
TTITLE10=Heartaches and Sorrows
TTITLE11=Damaged Goods
TTITLE12=Never Too Far From Home
TTITLE13=Something Natural
EXTD=
EXTT0=
EXTT1=
EXTT2=
EXTT3=
EXTT4=
EXTT5=
EXTT6=
EXTT7=
EXTT8=
EXTT9=
EXTT10=
EXTT11=
EXTT12=
EXTT13=
PLAYORDER=
